<mxfile host="app.diagrams.net" modified="2023-06-12T21:09:10.955Z" agent="Mozilla/5.0 (X11; Ubuntu; Linux x86_64; rv:109.0) Gecko/20100101 Firefox/114.0" etag="VQ_PtffHX4R_FKACJ2t1" version="21.3.8" type="device">
  <diagram name="Page-1" id="L0XfaPYGX6IdSDpzYpWA">
    <mxGraphModel dx="2979" dy="1239" grid="1" gridSize="10" guides="1" tooltips="1" connect="1" arrows="1" fold="1" page="1" pageScale="1" pageWidth="850" pageHeight="1100" math="0" shadow="0">
      <root>
        <mxCell id="0" />
        <mxCell id="1" parent="0" />
        <mxCell id="qJWIaZBmrBlOOwEZe329-1" value="" style="rounded=0;whiteSpace=wrap;html=1;" vertex="1" parent="1">
          <mxGeometry x="-500" y="260" width="360" height="200" as="geometry" />
        </mxCell>
        <mxCell id="qJWIaZBmrBlOOwEZe329-2" value="&lt;font style=&quot;font-size: 20px;&quot;&gt;Local machine&lt;/font&gt;" style="text;html=1;strokeColor=none;fillColor=none;align=center;verticalAlign=middle;whiteSpace=wrap;rounded=0;" vertex="1" parent="1">
          <mxGeometry x="-435" y="220" width="230" height="30" as="geometry" />
        </mxCell>
        <mxCell id="qJWIaZBmrBlOOwEZe329-94" style="edgeStyle=orthogonalEdgeStyle;rounded=0;orthogonalLoop=1;jettySize=auto;html=1;exitX=1;exitY=0.5;exitDx=0;exitDy=0;entryX=0;entryY=0.5;entryDx=0;entryDy=0;" edge="1" parent="1" source="qJWIaZBmrBlOOwEZe329-4" target="qJWIaZBmrBlOOwEZe329-84">
          <mxGeometry relative="1" as="geometry" />
        </mxCell>
        <mxCell id="qJWIaZBmrBlOOwEZe329-4" value="" style="rounded=0;whiteSpace=wrap;html=1;" vertex="1" parent="1">
          <mxGeometry x="-340" y="310" width="175" height="40" as="geometry" />
        </mxCell>
        <mxCell id="qJWIaZBmrBlOOwEZe329-5" value="&lt;font style=&quot;font-size: 20px;&quot;&gt;Kubectl&lt;br&gt;&lt;/font&gt;" style="text;html=1;strokeColor=none;fillColor=none;align=center;verticalAlign=middle;whiteSpace=wrap;rounded=0;" vertex="1" parent="1">
          <mxGeometry x="-307.5" y="315" width="102.5" height="30" as="geometry" />
        </mxCell>
        <mxCell id="qJWIaZBmrBlOOwEZe329-6" value="" style="rounded=0;whiteSpace=wrap;html=1;" vertex="1" parent="1">
          <mxGeometry x="-340" y="400" width="175" height="40" as="geometry" />
        </mxCell>
        <mxCell id="qJWIaZBmrBlOOwEZe329-7" value="&lt;div style=&quot;font-size: 20px;&quot;&gt;&lt;font style=&quot;font-size: 20px;&quot;&gt;config&lt;/font&gt;&lt;/div&gt;" style="text;html=1;strokeColor=none;fillColor=none;align=center;verticalAlign=middle;whiteSpace=wrap;rounded=0;" vertex="1" parent="1">
          <mxGeometry x="-307.5" y="405" width="110" height="30" as="geometry" />
        </mxCell>
        <mxCell id="qJWIaZBmrBlOOwEZe329-9" value="" style="image;html=1;image=img/lib/clip_art/computers/Laptop_128x128.png" vertex="1" parent="1">
          <mxGeometry x="-460" y="320" width="80" height="80" as="geometry" />
        </mxCell>
        <mxCell id="qJWIaZBmrBlOOwEZe329-10" value="" style="swimlane;startSize=0;" vertex="1" parent="1">
          <mxGeometry x="550" y="80" width="590" height="660" as="geometry" />
        </mxCell>
        <mxCell id="qJWIaZBmrBlOOwEZe329-14" value="" style="swimlane;startSize=0;" vertex="1" parent="qJWIaZBmrBlOOwEZe329-10">
          <mxGeometry x="20" y="20" width="550" height="160" as="geometry" />
        </mxCell>
        <mxCell id="qJWIaZBmrBlOOwEZe329-15" value="" style="rounded=0;whiteSpace=wrap;html=1;" vertex="1" parent="qJWIaZBmrBlOOwEZe329-14">
          <mxGeometry x="10" y="25" width="170" height="110" as="geometry" />
        </mxCell>
        <mxCell id="qJWIaZBmrBlOOwEZe329-16" value="" style="rounded=0;whiteSpace=wrap;html=1;" vertex="1" parent="qJWIaZBmrBlOOwEZe329-14">
          <mxGeometry x="190" y="25" width="170" height="110" as="geometry" />
        </mxCell>
        <mxCell id="qJWIaZBmrBlOOwEZe329-17" value="" style="rounded=0;whiteSpace=wrap;html=1;" vertex="1" parent="qJWIaZBmrBlOOwEZe329-14">
          <mxGeometry x="370" y="25" width="170" height="110" as="geometry" />
        </mxCell>
        <mxCell id="qJWIaZBmrBlOOwEZe329-28" value="&lt;font style=&quot;font-size: 20px;&quot;&gt;Pod&lt;/font&gt;" style="text;html=1;strokeColor=none;fillColor=none;align=center;verticalAlign=middle;whiteSpace=wrap;rounded=0;" vertex="1" parent="qJWIaZBmrBlOOwEZe329-14">
          <mxGeometry x="10" y="25" width="60" height="20" as="geometry" />
        </mxCell>
        <mxCell id="qJWIaZBmrBlOOwEZe329-34" value="&lt;font style=&quot;font-size: 20px;&quot;&gt;Pod&lt;/font&gt;" style="text;html=1;strokeColor=none;fillColor=none;align=center;verticalAlign=middle;whiteSpace=wrap;rounded=0;" vertex="1" parent="qJWIaZBmrBlOOwEZe329-14">
          <mxGeometry x="190" y="25" width="60" height="20" as="geometry" />
        </mxCell>
        <mxCell id="qJWIaZBmrBlOOwEZe329-35" value="&lt;font style=&quot;font-size: 20px;&quot;&gt;Pod&lt;/font&gt;" style="text;html=1;strokeColor=none;fillColor=none;align=center;verticalAlign=middle;whiteSpace=wrap;rounded=0;" vertex="1" parent="qJWIaZBmrBlOOwEZe329-14">
          <mxGeometry x="370" y="25" width="60" height="20" as="geometry" />
        </mxCell>
        <mxCell id="qJWIaZBmrBlOOwEZe329-44" value="" style="rounded=0;whiteSpace=wrap;html=1;" vertex="1" parent="qJWIaZBmrBlOOwEZe329-14">
          <mxGeometry x="20" y="70" width="70" height="50" as="geometry" />
        </mxCell>
        <mxCell id="qJWIaZBmrBlOOwEZe329-45" value="&lt;font style=&quot;font-size: 15px;&quot;&gt;container&lt;/font&gt;" style="text;html=1;strokeColor=none;fillColor=none;align=center;verticalAlign=middle;whiteSpace=wrap;rounded=0;" vertex="1" parent="qJWIaZBmrBlOOwEZe329-14">
          <mxGeometry y="80" width="110" height="30" as="geometry" />
        </mxCell>
        <mxCell id="qJWIaZBmrBlOOwEZe329-39" value="" style="rounded=0;whiteSpace=wrap;html=1;" vertex="1" parent="qJWIaZBmrBlOOwEZe329-14">
          <mxGeometry x="100" y="70" width="70" height="50" as="geometry" />
        </mxCell>
        <mxCell id="qJWIaZBmrBlOOwEZe329-40" value="&lt;font style=&quot;font-size: 15px;&quot;&gt;container&lt;/font&gt;" style="text;html=1;strokeColor=none;fillColor=none;align=center;verticalAlign=middle;whiteSpace=wrap;rounded=0;" vertex="1" parent="qJWIaZBmrBlOOwEZe329-14">
          <mxGeometry x="80" y="80" width="110" height="30" as="geometry" />
        </mxCell>
        <mxCell id="qJWIaZBmrBlOOwEZe329-46" value="" style="rounded=0;whiteSpace=wrap;html=1;" vertex="1" parent="qJWIaZBmrBlOOwEZe329-14">
          <mxGeometry x="200" y="70" width="70" height="50" as="geometry" />
        </mxCell>
        <mxCell id="qJWIaZBmrBlOOwEZe329-47" value="&lt;font style=&quot;font-size: 15px;&quot;&gt;container&lt;/font&gt;" style="text;html=1;strokeColor=none;fillColor=none;align=center;verticalAlign=middle;whiteSpace=wrap;rounded=0;" vertex="1" parent="qJWIaZBmrBlOOwEZe329-14">
          <mxGeometry x="180" y="80" width="110" height="30" as="geometry" />
        </mxCell>
        <mxCell id="qJWIaZBmrBlOOwEZe329-48" value="" style="rounded=0;whiteSpace=wrap;html=1;" vertex="1" parent="qJWIaZBmrBlOOwEZe329-14">
          <mxGeometry x="280" y="70" width="70" height="50" as="geometry" />
        </mxCell>
        <mxCell id="qJWIaZBmrBlOOwEZe329-49" value="&lt;font style=&quot;font-size: 15px;&quot;&gt;container&lt;/font&gt;" style="text;html=1;strokeColor=none;fillColor=none;align=center;verticalAlign=middle;whiteSpace=wrap;rounded=0;" vertex="1" parent="qJWIaZBmrBlOOwEZe329-14">
          <mxGeometry x="260" y="80" width="110" height="30" as="geometry" />
        </mxCell>
        <mxCell id="qJWIaZBmrBlOOwEZe329-55" value="" style="rounded=0;whiteSpace=wrap;html=1;" vertex="1" parent="qJWIaZBmrBlOOwEZe329-14">
          <mxGeometry x="380" y="70" width="70" height="50" as="geometry" />
        </mxCell>
        <mxCell id="qJWIaZBmrBlOOwEZe329-56" value="&lt;font style=&quot;font-size: 15px;&quot;&gt;container&lt;/font&gt;" style="text;html=1;strokeColor=none;fillColor=none;align=center;verticalAlign=middle;whiteSpace=wrap;rounded=0;" vertex="1" parent="qJWIaZBmrBlOOwEZe329-14">
          <mxGeometry x="360" y="80" width="110" height="30" as="geometry" />
        </mxCell>
        <mxCell id="qJWIaZBmrBlOOwEZe329-57" value="" style="rounded=0;whiteSpace=wrap;html=1;" vertex="1" parent="qJWIaZBmrBlOOwEZe329-14">
          <mxGeometry x="460" y="70" width="70" height="50" as="geometry" />
        </mxCell>
        <mxCell id="qJWIaZBmrBlOOwEZe329-58" value="&lt;font style=&quot;font-size: 15px;&quot;&gt;container&lt;/font&gt;" style="text;html=1;strokeColor=none;fillColor=none;align=center;verticalAlign=middle;whiteSpace=wrap;rounded=0;" vertex="1" parent="qJWIaZBmrBlOOwEZe329-14">
          <mxGeometry x="440" y="80" width="110" height="30" as="geometry" />
        </mxCell>
        <mxCell id="qJWIaZBmrBlOOwEZe329-18" value="" style="swimlane;startSize=0;" vertex="1" parent="qJWIaZBmrBlOOwEZe329-10">
          <mxGeometry x="20" y="250" width="550" height="160" as="geometry" />
        </mxCell>
        <mxCell id="qJWIaZBmrBlOOwEZe329-19" value="" style="rounded=0;whiteSpace=wrap;html=1;" vertex="1" parent="qJWIaZBmrBlOOwEZe329-18">
          <mxGeometry x="10" y="25" width="170" height="110" as="geometry" />
        </mxCell>
        <mxCell id="qJWIaZBmrBlOOwEZe329-20" value="" style="rounded=0;whiteSpace=wrap;html=1;" vertex="1" parent="qJWIaZBmrBlOOwEZe329-18">
          <mxGeometry x="190" y="25" width="170" height="110" as="geometry" />
        </mxCell>
        <mxCell id="qJWIaZBmrBlOOwEZe329-21" value="" style="rounded=0;whiteSpace=wrap;html=1;" vertex="1" parent="qJWIaZBmrBlOOwEZe329-18">
          <mxGeometry x="370" y="25" width="170" height="110" as="geometry" />
        </mxCell>
        <mxCell id="qJWIaZBmrBlOOwEZe329-27" value="&lt;font style=&quot;font-size: 20px;&quot;&gt;Pod&lt;/font&gt;" style="text;html=1;strokeColor=none;fillColor=none;align=center;verticalAlign=middle;whiteSpace=wrap;rounded=0;" vertex="1" parent="qJWIaZBmrBlOOwEZe329-18">
          <mxGeometry x="190" y="25" width="60" height="20" as="geometry" />
        </mxCell>
        <mxCell id="qJWIaZBmrBlOOwEZe329-32" value="&lt;font style=&quot;font-size: 20px;&quot;&gt;Pod&lt;/font&gt;" style="text;html=1;strokeColor=none;fillColor=none;align=center;verticalAlign=middle;whiteSpace=wrap;rounded=0;" vertex="1" parent="qJWIaZBmrBlOOwEZe329-18">
          <mxGeometry x="10" y="25" width="60" height="20" as="geometry" />
        </mxCell>
        <mxCell id="qJWIaZBmrBlOOwEZe329-33" value="&lt;font style=&quot;font-size: 20px;&quot;&gt;Pod&lt;/font&gt;" style="text;html=1;strokeColor=none;fillColor=none;align=center;verticalAlign=middle;whiteSpace=wrap;rounded=0;" vertex="1" parent="qJWIaZBmrBlOOwEZe329-18">
          <mxGeometry x="370" y="25" width="60" height="20" as="geometry" />
        </mxCell>
        <mxCell id="qJWIaZBmrBlOOwEZe329-59" value="" style="rounded=0;whiteSpace=wrap;html=1;" vertex="1" parent="qJWIaZBmrBlOOwEZe329-18">
          <mxGeometry x="20" y="70" width="70" height="50" as="geometry" />
        </mxCell>
        <mxCell id="qJWIaZBmrBlOOwEZe329-60" value="&lt;font style=&quot;font-size: 15px;&quot;&gt;container&lt;/font&gt;" style="text;html=1;strokeColor=none;fillColor=none;align=center;verticalAlign=middle;whiteSpace=wrap;rounded=0;" vertex="1" parent="qJWIaZBmrBlOOwEZe329-18">
          <mxGeometry y="80" width="110" height="30" as="geometry" />
        </mxCell>
        <mxCell id="qJWIaZBmrBlOOwEZe329-61" value="" style="rounded=0;whiteSpace=wrap;html=1;" vertex="1" parent="qJWIaZBmrBlOOwEZe329-18">
          <mxGeometry x="100" y="70" width="70" height="50" as="geometry" />
        </mxCell>
        <mxCell id="qJWIaZBmrBlOOwEZe329-62" value="&lt;font style=&quot;font-size: 15px;&quot;&gt;container&lt;/font&gt;" style="text;html=1;strokeColor=none;fillColor=none;align=center;verticalAlign=middle;whiteSpace=wrap;rounded=0;" vertex="1" parent="qJWIaZBmrBlOOwEZe329-18">
          <mxGeometry x="80" y="80" width="110" height="30" as="geometry" />
        </mxCell>
        <mxCell id="qJWIaZBmrBlOOwEZe329-63" value="" style="rounded=0;whiteSpace=wrap;html=1;" vertex="1" parent="qJWIaZBmrBlOOwEZe329-18">
          <mxGeometry x="200" y="70" width="70" height="50" as="geometry" />
        </mxCell>
        <mxCell id="qJWIaZBmrBlOOwEZe329-64" value="&lt;font style=&quot;font-size: 15px;&quot;&gt;container&lt;/font&gt;" style="text;html=1;strokeColor=none;fillColor=none;align=center;verticalAlign=middle;whiteSpace=wrap;rounded=0;" vertex="1" parent="qJWIaZBmrBlOOwEZe329-18">
          <mxGeometry x="180" y="80" width="110" height="30" as="geometry" />
        </mxCell>
        <mxCell id="qJWIaZBmrBlOOwEZe329-65" value="" style="rounded=0;whiteSpace=wrap;html=1;" vertex="1" parent="qJWIaZBmrBlOOwEZe329-18">
          <mxGeometry x="280" y="70" width="70" height="50" as="geometry" />
        </mxCell>
        <mxCell id="qJWIaZBmrBlOOwEZe329-66" value="&lt;font style=&quot;font-size: 15px;&quot;&gt;container&lt;/font&gt;" style="text;html=1;strokeColor=none;fillColor=none;align=center;verticalAlign=middle;whiteSpace=wrap;rounded=0;" vertex="1" parent="qJWIaZBmrBlOOwEZe329-18">
          <mxGeometry x="260" y="80" width="110" height="30" as="geometry" />
        </mxCell>
        <mxCell id="qJWIaZBmrBlOOwEZe329-67" value="" style="rounded=0;whiteSpace=wrap;html=1;" vertex="1" parent="qJWIaZBmrBlOOwEZe329-18">
          <mxGeometry x="380" y="70" width="70" height="50" as="geometry" />
        </mxCell>
        <mxCell id="qJWIaZBmrBlOOwEZe329-68" value="&lt;font style=&quot;font-size: 15px;&quot;&gt;container&lt;/font&gt;" style="text;html=1;strokeColor=none;fillColor=none;align=center;verticalAlign=middle;whiteSpace=wrap;rounded=0;" vertex="1" parent="qJWIaZBmrBlOOwEZe329-18">
          <mxGeometry x="360" y="80" width="110" height="30" as="geometry" />
        </mxCell>
        <mxCell id="qJWIaZBmrBlOOwEZe329-69" value="" style="rounded=0;whiteSpace=wrap;html=1;" vertex="1" parent="qJWIaZBmrBlOOwEZe329-18">
          <mxGeometry x="460" y="70" width="70" height="50" as="geometry" />
        </mxCell>
        <mxCell id="qJWIaZBmrBlOOwEZe329-70" value="&lt;font style=&quot;font-size: 15px;&quot;&gt;container&lt;/font&gt;" style="text;html=1;strokeColor=none;fillColor=none;align=center;verticalAlign=middle;whiteSpace=wrap;rounded=0;" vertex="1" parent="qJWIaZBmrBlOOwEZe329-18">
          <mxGeometry x="440" y="80" width="110" height="30" as="geometry" />
        </mxCell>
        <mxCell id="qJWIaZBmrBlOOwEZe329-22" value="" style="swimlane;startSize=0;" vertex="1" parent="qJWIaZBmrBlOOwEZe329-10">
          <mxGeometry x="20" y="460" width="550" height="160" as="geometry" />
        </mxCell>
        <mxCell id="qJWIaZBmrBlOOwEZe329-23" value="" style="rounded=0;whiteSpace=wrap;html=1;" vertex="1" parent="qJWIaZBmrBlOOwEZe329-22">
          <mxGeometry x="10" y="25" width="170" height="110" as="geometry" />
        </mxCell>
        <mxCell id="qJWIaZBmrBlOOwEZe329-24" value="" style="rounded=0;whiteSpace=wrap;html=1;" vertex="1" parent="qJWIaZBmrBlOOwEZe329-22">
          <mxGeometry x="190" y="25" width="170" height="110" as="geometry" />
        </mxCell>
        <mxCell id="qJWIaZBmrBlOOwEZe329-25" value="" style="rounded=0;whiteSpace=wrap;html=1;" vertex="1" parent="qJWIaZBmrBlOOwEZe329-22">
          <mxGeometry x="370" y="25" width="170" height="110" as="geometry" />
        </mxCell>
        <mxCell id="qJWIaZBmrBlOOwEZe329-29" value="&lt;font style=&quot;font-size: 20px;&quot;&gt;Pod&lt;/font&gt;" style="text;html=1;strokeColor=none;fillColor=none;align=center;verticalAlign=middle;whiteSpace=wrap;rounded=0;" vertex="1" parent="qJWIaZBmrBlOOwEZe329-22">
          <mxGeometry x="370" y="25" width="60" height="20" as="geometry" />
        </mxCell>
        <mxCell id="qJWIaZBmrBlOOwEZe329-30" value="&lt;font style=&quot;font-size: 20px;&quot;&gt;Pod&lt;/font&gt;" style="text;html=1;strokeColor=none;fillColor=none;align=center;verticalAlign=middle;whiteSpace=wrap;rounded=0;" vertex="1" parent="qJWIaZBmrBlOOwEZe329-22">
          <mxGeometry x="10" y="25" width="60" height="20" as="geometry" />
        </mxCell>
        <mxCell id="qJWIaZBmrBlOOwEZe329-31" value="&lt;font style=&quot;font-size: 20px;&quot;&gt;Pod&lt;/font&gt;" style="text;html=1;strokeColor=none;fillColor=none;align=center;verticalAlign=middle;whiteSpace=wrap;rounded=0;" vertex="1" parent="qJWIaZBmrBlOOwEZe329-22">
          <mxGeometry x="190" y="25" width="60" height="20" as="geometry" />
        </mxCell>
        <mxCell id="qJWIaZBmrBlOOwEZe329-71" value="" style="rounded=0;whiteSpace=wrap;html=1;" vertex="1" parent="qJWIaZBmrBlOOwEZe329-22">
          <mxGeometry x="20" y="70" width="70" height="50" as="geometry" />
        </mxCell>
        <mxCell id="qJWIaZBmrBlOOwEZe329-72" value="&lt;font style=&quot;font-size: 15px;&quot;&gt;container&lt;/font&gt;" style="text;html=1;strokeColor=none;fillColor=none;align=center;verticalAlign=middle;whiteSpace=wrap;rounded=0;" vertex="1" parent="qJWIaZBmrBlOOwEZe329-22">
          <mxGeometry y="80" width="110" height="30" as="geometry" />
        </mxCell>
        <mxCell id="qJWIaZBmrBlOOwEZe329-73" value="" style="rounded=0;whiteSpace=wrap;html=1;" vertex="1" parent="qJWIaZBmrBlOOwEZe329-22">
          <mxGeometry x="100" y="70" width="70" height="50" as="geometry" />
        </mxCell>
        <mxCell id="qJWIaZBmrBlOOwEZe329-74" value="&lt;font style=&quot;font-size: 15px;&quot;&gt;container&lt;/font&gt;" style="text;html=1;strokeColor=none;fillColor=none;align=center;verticalAlign=middle;whiteSpace=wrap;rounded=0;" vertex="1" parent="qJWIaZBmrBlOOwEZe329-22">
          <mxGeometry x="80" y="80" width="110" height="30" as="geometry" />
        </mxCell>
        <mxCell id="qJWIaZBmrBlOOwEZe329-75" value="" style="rounded=0;whiteSpace=wrap;html=1;" vertex="1" parent="qJWIaZBmrBlOOwEZe329-22">
          <mxGeometry x="200" y="70" width="70" height="50" as="geometry" />
        </mxCell>
        <mxCell id="qJWIaZBmrBlOOwEZe329-76" value="&lt;font style=&quot;font-size: 15px;&quot;&gt;container&lt;/font&gt;" style="text;html=1;strokeColor=none;fillColor=none;align=center;verticalAlign=middle;whiteSpace=wrap;rounded=0;" vertex="1" parent="qJWIaZBmrBlOOwEZe329-22">
          <mxGeometry x="180" y="80" width="110" height="30" as="geometry" />
        </mxCell>
        <mxCell id="qJWIaZBmrBlOOwEZe329-77" value="" style="rounded=0;whiteSpace=wrap;html=1;" vertex="1" parent="qJWIaZBmrBlOOwEZe329-22">
          <mxGeometry x="280" y="70" width="70" height="50" as="geometry" />
        </mxCell>
        <mxCell id="qJWIaZBmrBlOOwEZe329-78" value="&lt;font style=&quot;font-size: 15px;&quot;&gt;container&lt;/font&gt;" style="text;html=1;strokeColor=none;fillColor=none;align=center;verticalAlign=middle;whiteSpace=wrap;rounded=0;" vertex="1" parent="qJWIaZBmrBlOOwEZe329-22">
          <mxGeometry x="260" y="80" width="110" height="30" as="geometry" />
        </mxCell>
        <mxCell id="qJWIaZBmrBlOOwEZe329-79" value="" style="rounded=0;whiteSpace=wrap;html=1;" vertex="1" parent="qJWIaZBmrBlOOwEZe329-22">
          <mxGeometry x="380" y="70" width="70" height="50" as="geometry" />
        </mxCell>
        <mxCell id="qJWIaZBmrBlOOwEZe329-80" value="&lt;font style=&quot;font-size: 15px;&quot;&gt;container&lt;/font&gt;" style="text;html=1;strokeColor=none;fillColor=none;align=center;verticalAlign=middle;whiteSpace=wrap;rounded=0;" vertex="1" parent="qJWIaZBmrBlOOwEZe329-22">
          <mxGeometry x="360" y="80" width="110" height="30" as="geometry" />
        </mxCell>
        <mxCell id="qJWIaZBmrBlOOwEZe329-81" value="" style="rounded=0;whiteSpace=wrap;html=1;" vertex="1" parent="qJWIaZBmrBlOOwEZe329-22">
          <mxGeometry x="460" y="70" width="70" height="50" as="geometry" />
        </mxCell>
        <mxCell id="qJWIaZBmrBlOOwEZe329-82" value="&lt;font style=&quot;font-size: 15px;&quot;&gt;container&lt;/font&gt;" style="text;html=1;strokeColor=none;fillColor=none;align=center;verticalAlign=middle;whiteSpace=wrap;rounded=0;" vertex="1" parent="qJWIaZBmrBlOOwEZe329-22">
          <mxGeometry x="440" y="80" width="110" height="30" as="geometry" />
        </mxCell>
        <mxCell id="qJWIaZBmrBlOOwEZe329-36" value="&lt;font style=&quot;font-size: 20px;&quot;&gt;Worker Node 1&lt;br&gt;&lt;/font&gt;" style="text;html=1;strokeColor=none;fillColor=none;align=center;verticalAlign=middle;whiteSpace=wrap;rounded=0;" vertex="1" parent="qJWIaZBmrBlOOwEZe329-10">
          <mxGeometry x="20" y="180" width="230" height="30" as="geometry" />
        </mxCell>
        <mxCell id="qJWIaZBmrBlOOwEZe329-37" value="&lt;font style=&quot;font-size: 20px;&quot;&gt;Worker Node 2&lt;br&gt;&lt;/font&gt;" style="text;html=1;strokeColor=none;fillColor=none;align=center;verticalAlign=middle;whiteSpace=wrap;rounded=0;" vertex="1" parent="qJWIaZBmrBlOOwEZe329-10">
          <mxGeometry x="20" y="410" width="230" height="30" as="geometry" />
        </mxCell>
        <mxCell id="qJWIaZBmrBlOOwEZe329-38" value="&lt;font style=&quot;font-size: 20px;&quot;&gt;Worker &lt;font style=&quot;font-size: 20px;&quot;&gt;Node 3&lt;/font&gt;&lt;font style=&quot;font-size: 20px;&quot;&gt;&lt;br&gt;&lt;/font&gt;&lt;/font&gt;" style="text;html=1;strokeColor=none;fillColor=none;align=center;verticalAlign=middle;whiteSpace=wrap;rounded=0;" vertex="1" parent="qJWIaZBmrBlOOwEZe329-10">
          <mxGeometry x="20" y="620" width="230" height="30" as="geometry" />
        </mxCell>
        <mxCell id="qJWIaZBmrBlOOwEZe329-12" value="&lt;font style=&quot;font-size: 20px;&quot;&gt;Kubernetes cluster&lt;br&gt;&lt;/font&gt;" style="text;html=1;strokeColor=none;fillColor=none;align=center;verticalAlign=middle;whiteSpace=wrap;rounded=0;" vertex="1" parent="1">
          <mxGeometry x="720" y="40" width="230" height="30" as="geometry" />
        </mxCell>
        <mxCell id="qJWIaZBmrBlOOwEZe329-84" value="" style="rounded=0;whiteSpace=wrap;html=1;" vertex="1" parent="1">
          <mxGeometry x="80" y="320" width="220" height="160" as="geometry" />
        </mxCell>
        <mxCell id="qJWIaZBmrBlOOwEZe329-85" value="&lt;font style=&quot;font-size: 20px;&quot;&gt;Main node&lt;/font&gt;" style="text;html=1;strokeColor=none;fillColor=none;align=center;verticalAlign=middle;whiteSpace=wrap;rounded=0;" vertex="1" parent="1">
          <mxGeometry x="75" y="285" width="230" height="30" as="geometry" />
        </mxCell>
        <mxCell id="qJWIaZBmrBlOOwEZe329-91" style="edgeStyle=orthogonalEdgeStyle;rounded=0;orthogonalLoop=1;jettySize=auto;html=1;exitX=1;exitY=0.5;exitDx=0;exitDy=0;entryX=0;entryY=0.25;entryDx=0;entryDy=0;" edge="1" parent="1" source="qJWIaZBmrBlOOwEZe329-87" target="qJWIaZBmrBlOOwEZe329-45">
          <mxGeometry relative="1" as="geometry" />
        </mxCell>
        <mxCell id="qJWIaZBmrBlOOwEZe329-92" style="edgeStyle=orthogonalEdgeStyle;rounded=0;orthogonalLoop=1;jettySize=auto;html=1;exitX=1;exitY=0.5;exitDx=0;exitDy=0;entryX=0;entryY=0.5;entryDx=0;entryDy=0;" edge="1" parent="1" source="qJWIaZBmrBlOOwEZe329-87" target="qJWIaZBmrBlOOwEZe329-60">
          <mxGeometry relative="1" as="geometry" />
        </mxCell>
        <mxCell id="qJWIaZBmrBlOOwEZe329-93" style="edgeStyle=orthogonalEdgeStyle;rounded=0;orthogonalLoop=1;jettySize=auto;html=1;exitX=1;exitY=0.5;exitDx=0;exitDy=0;entryX=0;entryY=0.25;entryDx=0;entryDy=0;" edge="1" parent="1" source="qJWIaZBmrBlOOwEZe329-87" target="qJWIaZBmrBlOOwEZe329-72">
          <mxGeometry relative="1" as="geometry" />
        </mxCell>
        <mxCell id="qJWIaZBmrBlOOwEZe329-87" value="" style="swimlane;startSize=0;" vertex="1" parent="1">
          <mxGeometry x="85" y="330" width="210" height="40" as="geometry" />
        </mxCell>
        <mxCell id="qJWIaZBmrBlOOwEZe329-88" value="&lt;font style=&quot;font-size: 20px;&quot;&gt;Scheduler&lt;/font&gt;" style="text;html=1;strokeColor=none;fillColor=none;align=center;verticalAlign=middle;whiteSpace=wrap;rounded=0;" vertex="1" parent="qJWIaZBmrBlOOwEZe329-87">
          <mxGeometry x="-10" y="5" width="230" height="30" as="geometry" />
        </mxCell>
        <mxCell id="qJWIaZBmrBlOOwEZe329-96" value="" style="swimlane;startSize=0;" vertex="1" parent="1">
          <mxGeometry x="85" y="380" width="210" height="40" as="geometry" />
        </mxCell>
        <mxCell id="qJWIaZBmrBlOOwEZe329-97" value="&lt;font style=&quot;font-size: 20px;&quot;&gt;API&amp;nbsp; server&lt;/font&gt;" style="text;html=1;strokeColor=none;fillColor=none;align=center;verticalAlign=middle;whiteSpace=wrap;rounded=0;" vertex="1" parent="qJWIaZBmrBlOOwEZe329-96">
          <mxGeometry x="-10" y="5" width="230" height="30" as="geometry" />
        </mxCell>
        <mxCell id="qJWIaZBmrBlOOwEZe329-98" value="" style="shape=cylinder3;whiteSpace=wrap;html=1;boundedLbl=1;backgroundOutline=1;size=15;" vertex="1" parent="1">
          <mxGeometry x="1370" y="410" width="180" height="235" as="geometry" />
        </mxCell>
        <mxCell id="qJWIaZBmrBlOOwEZe329-101" style="edgeStyle=orthogonalEdgeStyle;rounded=0;orthogonalLoop=1;jettySize=auto;html=1;entryX=0;entryY=0.5;entryDx=0;entryDy=0;entryPerimeter=0;" edge="1" parent="1" source="qJWIaZBmrBlOOwEZe329-69" target="qJWIaZBmrBlOOwEZe329-98">
          <mxGeometry relative="1" as="geometry" />
        </mxCell>
        <mxCell id="qJWIaZBmrBlOOwEZe329-102" style="edgeStyle=orthogonalEdgeStyle;rounded=0;orthogonalLoop=1;jettySize=auto;html=1;entryX=0;entryY=0;entryDx=0;entryDy=168.75;entryPerimeter=0;" edge="1" parent="1" source="qJWIaZBmrBlOOwEZe329-81" target="qJWIaZBmrBlOOwEZe329-98">
          <mxGeometry relative="1" as="geometry" />
        </mxCell>
        <mxCell id="qJWIaZBmrBlOOwEZe329-103" style="edgeStyle=orthogonalEdgeStyle;rounded=0;orthogonalLoop=1;jettySize=auto;html=1;entryX=0;entryY=0;entryDx=0;entryDy=66.25;entryPerimeter=0;" edge="1" parent="1" source="qJWIaZBmrBlOOwEZe329-57" target="qJWIaZBmrBlOOwEZe329-98">
          <mxGeometry relative="1" as="geometry" />
        </mxCell>
        <mxCell id="qJWIaZBmrBlOOwEZe329-104" value="&lt;font style=&quot;font-size: 20px;&quot;&gt;Volume&lt;font style=&quot;font-size: 20px;&quot;&gt;&lt;br&gt;&lt;/font&gt;&lt;/font&gt;" style="text;html=1;strokeColor=none;fillColor=none;align=center;verticalAlign=middle;whiteSpace=wrap;rounded=0;" vertex="1" parent="1">
          <mxGeometry x="1345" y="380" width="230" height="30" as="geometry" />
        </mxCell>
        <mxCell id="qJWIaZBmrBlOOwEZe329-105" value="&lt;font style=&quot;font-size: 20px;&quot;&gt;&quot;A directory containing data, accessible to the containers in a Pod&quot;&lt;/font&gt;" style="text;html=1;strokeColor=none;fillColor=none;align=center;verticalAlign=middle;whiteSpace=wrap;rounded=0;" vertex="1" parent="1">
          <mxGeometry x="1380" y="477.5" width="170" height="100" as="geometry" />
        </mxCell>
        <mxCell id="qJWIaZBmrBlOOwEZe329-106" value="&lt;font style=&quot;font-size: 30px;&quot;&gt;HTTP&lt;/font&gt;" style="text;html=1;strokeColor=none;fillColor=none;align=center;verticalAlign=middle;whiteSpace=wrap;rounded=0;" vertex="1" parent="1">
          <mxGeometry x="135" y="710" width="110" height="40" as="geometry" />
        </mxCell>
        <mxCell id="qJWIaZBmrBlOOwEZe329-107" value="" style="rounded=0;whiteSpace=wrap;html=1;" vertex="1" parent="1">
          <mxGeometry x="80" y="560" width="220" height="60" as="geometry" />
        </mxCell>
        <mxCell id="qJWIaZBmrBlOOwEZe329-108" value="&lt;font style=&quot;font-size: 20px;&quot;&gt;Service&lt;/font&gt;" style="text;html=1;strokeColor=none;fillColor=none;align=center;verticalAlign=middle;whiteSpace=wrap;rounded=0;" vertex="1" parent="1">
          <mxGeometry x="135" y="570" width="110" height="40" as="geometry" />
        </mxCell>
        <mxCell id="qJWIaZBmrBlOOwEZe329-109" value="" style="endArrow=classic;startArrow=classic;html=1;rounded=0;exitX=0.5;exitY=0;exitDx=0;exitDy=0;entryX=0.5;entryY=1;entryDx=0;entryDy=0;" edge="1" parent="1" source="qJWIaZBmrBlOOwEZe329-106" target="qJWIaZBmrBlOOwEZe329-107">
          <mxGeometry width="50" height="50" relative="1" as="geometry">
            <mxPoint x="520" y="520" as="sourcePoint" />
            <mxPoint x="570" y="470" as="targetPoint" />
          </mxGeometry>
        </mxCell>
        <mxCell id="qJWIaZBmrBlOOwEZe329-110" value="" style="endArrow=classic;startArrow=classic;html=1;rounded=0;exitX=0.5;exitY=0;exitDx=0;exitDy=0;entryX=0.5;entryY=1;entryDx=0;entryDy=0;" edge="1" parent="1" source="qJWIaZBmrBlOOwEZe329-107" target="qJWIaZBmrBlOOwEZe329-84">
          <mxGeometry width="50" height="50" relative="1" as="geometry">
            <mxPoint x="200" y="720" as="sourcePoint" />
            <mxPoint x="200" y="630" as="targetPoint" />
            <Array as="points" />
          </mxGeometry>
        </mxCell>
      </root>
    </mxGraphModel>
  </diagram>
</mxfile>
